<?xml version="1.0" encoding="UTF-8" standalone="no"?>
<svg
   viewBox="0 0 448 448"
   version="1.1"
   id="svg4"
   sodipodi:docname="d17c4d4cace43796af64351d9656b50b.svg"
   width="448"
   height="448"
   xmlns:inkscape="http://www.inkscape.org/namespaces/inkscape"
   xmlns:sodipodi="http://sodipodi.sourceforge.net/DTD/sodipodi-0.dtd"
   xmlns="http://www.w3.org/2000/svg"
   xmlns:svg="http://www.w3.org/2000/svg">
  <defs
     id="defs8" />
  <sodipodi:namedview
     id="namedview6"
     pagecolor="#ffffff"
     bordercolor="#666666"
     borderopacity="1.0"
     inkscape:pageshadow="2"
     inkscape:pageopacity="0.0"
     inkscape:pagecheckerboard="0" />
  <!--!Font Awesome Free 6.6.0 by @fontawesome - https://fontawesome.com License - https://fontawesome.com/license/free Copyright 2024 Fonticons, Inc.-->
  <path
     d="m 194.4,179.7 a 53.348336,53.348336 0 1 0 59.3,88.7 53.348336,53.348336 0 1 0 -59.3,-88.7 z m 142.3,-68.4 c -5.2,-5.2 -11.5,-9.3 -18.4,-12 -18.1,-7.1 -57.6,-6.8 -83.1,-6.5 -4.1,0 -7.9,0.1 -11.2,0.1 -3.3,0 -7.2,0 -11.4,-0.1 -25.5,-0.3 -64.8,-0.7 -82.9,6.5 -6.9,2.7 -13.1,6.8 -18.4,12 -5.3,5.2 -9.3,11.5 -12,18.4 -7.1,18.1 -6.7,57.7 -6.5,83.2 0,4.1 0.1,7.9 0.1,11.1 0,3.2 0,7 -0.1,11.1 -0.2,25.5 -0.6,65.1 6.5,83.2 2.7,6.9 6.8,13.1 12,18.4 5.2,5.3 11.5,9.3 18.4,12 18.1,7.1 57.6,6.8 83.1,6.5 4.1,0 7.9,-0.1 11.2,-0.1 3.3,0 7.2,0 11.4,0.1 25.5,0.3 64.8,0.7 82.9,-6.5 6.9,-2.7 13.1,-6.8 18.4,-12 5.3,-5.2 9.3,-11.5 12,-18.4 7.2,-18 6.8,-57.4 6.5,-83 0,-4.2 -0.1,-8.1 -0.1,-11.4 0,-3.3 0,-7.1 0.1,-11.4 0.3,-25.5 0.7,-64.9 -6.5,-83 v 0 c -2.7,-6.9 -6.8,-13.1 -12,-18.4 z m -67.1,44.5 a 82.040234,82.040234 0 1 1 -91.2,136.4 82.012453,82.012453 0 1 1 91.1,-136.4 z m 29.2,-1.3 c -3.1,-2.1 -5.6,-5.1 -7.1,-8.6 -1.5,-3.5 -1.8,-7.3 -1.1,-11.1 0.7,-3.8 2.6,-7.1 5.2,-9.8 2.6,-2.7 6.1,-4.5 9.8,-5.2 3.7,-0.7 7.6,-0.4 11.1,1.1 3.5,1.5 6.5,3.9 8.6,7 2.1,3.1 3.2,6.8 3.2,10.6 0,2.5 -0.5,5 -1.4,7.3 -0.9,2.3 -2.4,4.4 -4.1,6.2 -1.7,1.8 -3.9,3.2 -6.2,4.2 -2.3,1 -4.8,1.5 -7.3,1.5 v 0 c -3.8,0 -7.5,-1.1 -10.6,-3.2 z M 448,64 C 448,28.7 419.3,0 384,0 H 64 C 28.7,0 0,28.7 0,64 v 320 c 0,35.3 28.7,64 64,64 h 320 c 35.3,0 64,-28.7 64,-64 z m -91,293 c -18.7,18.7 -41.4,24.6 -67,25.9 -26.4,1.5 -105.6,1.5 -132,0 -25.6,-1.3 -48.3,-7.2 -67,-25.9 -18.7,-18.7 -24.6,-41.4 -25.8,-67 -1.5,-26.4 -1.5,-105.6 0,-132 1.3,-25.6 7.1,-48.3 25.8,-67 18.7,-18.7 41.5,-24.6 67,-25.8 26.4,-1.5 105.6,-1.5 132,0 25.6,1.3 48.3,7.1 67,25.8 18.7,18.7 24.6,41.4 25.8,67 1.5,26.3 1.5,105.4 0,131.9 -1.3,25.6 -7.1,48.3 -25.8,67 z"
     id="path2" />
</svg>
