<?xml version="1.0" encoding="UTF-8" standalone="no"?>
<svg
   viewBox="0 0 448 448"
   version="1.1"
   id="svg4"
   sodipodi:docname="f243095a82bd5069575a6326804ab600.svg"
   width="448"
   height="448"
   xmlns:inkscape="http://www.inkscape.org/namespaces/inkscape"
   xmlns:sodipodi="http://sodipodi.sourceforge.net/DTD/sodipodi-0.dtd"
   xmlns="http://www.w3.org/2000/svg"
   xmlns:svg="http://www.w3.org/2000/svg">
  <defs
     id="defs8" />
  <sodipodi:namedview
     id="namedview6"
     pagecolor="#ffffff"
     bordercolor="#666666"
     borderopacity="1.0"
     inkscape:pageshadow="2"
     inkscape:pageopacity="0.0"
     inkscape:pagecheckerboard="0" />
  <!--!Font Awesome Free 6.6.0 by @fontawesome - https://fontawesome.com License - https://fontawesome.com/license/free Copyright 2024 Fonticons, Inc.-->
  <path
     d="M 282,224.2 186.8,170.1 V 278.3 Z M 384,0 H 64 C 28.7,0 0,28.7 0,64 v 320 c 0,35.3 28.7,64 64,64 h 320 c 35.3,0 64,-28.7 64,-64 V 64 C 448,28.7 419.3,0 384,0 Z m 14.4,136.1 c 7.6,28.6 7.6,88.2 7.6,88.2 0,0 0,59.6 -7.6,88.1 -4.2,15.8 -16.5,27.7 -32.2,31.9 C 337.9,352 224,352 224,352 224,352 110.1,352 81.8,344.4 66.1,340.2 53.8,328.3 49.6,312.5 42,283.9 42,224.3 42,224.3 c 0,0 0,-59.7 7.6,-88.2 4.2,-15.8 16.5,-28.2 32.2,-32.4 C 110.1,96 224,96 224,96 c 0,0 113.9,0 142.2,7.7 15.7,4.2 28,16.6 32.2,32.4 z"
     id="path2" />
</svg>
